<svg width="243" height="192" viewBox="0 0 243 192" fill="none" xmlns="http://www.w3.org/2000/svg">
<path d="M192.277 28.0747L187.918 23.7157L183.546 28.0878L187.905 32.4468L192.277 28.0747Z" fill="#0B3357"/>
<path d="M179.38 40.9724L175.021 36.6134L170.648 40.9855L175.007 45.3445L179.38 40.9724Z" fill="#0B3357"/>
<path d="M55.4103 28.0747L51.0513 23.7157L46.6792 28.0878L51.0382 32.4468L55.4103 28.0747Z" fill="#0B3357"/>
<path d="M68.4869 41.1515L64.1279 36.7925L59.7558 41.1646L64.1148 45.5236L68.4869 41.1515Z" fill="#0B3357"/>
<path d="M226.052 120.382L230.846 113.04L221.621 104.348L214.577 109.569C211.468 107.91 208.372 106.687 204.854 105.913L203.061 97.4478L190.406 97.8051L189.581 106.345C186.117 107.316 183.103 108.711 180.103 110.543L172.746 105.728L164.08 114.926L169.323 121.984C167.673 125.087 166.459 128.179 165.695 131.694L157.234 133.462L157.629 146.115L166.186 147.402C167.168 150.868 168.572 153.886 170.413 156.891L165.62 164.232L174.845 172.925L181.889 167.704C184.998 169.363 188.093 170.585 191.612 171.359L193.405 179.825L206.06 179.468L207.321 170.916C210.785 169.945 213.799 168.549 216.799 166.718L224.156 171.532L232.823 162.335L227.579 155.277C229.229 152.173 230.443 149.082 231.207 145.566L239.668 143.799L239.273 131.145L230.716 129.858C229.298 126.404 227.893 123.387 226.052 120.382ZM210.383 150.085C204.042 156.815 193.569 157.111 186.819 150.75C180.068 144.39 179.741 133.918 186.083 127.188C192.424 120.458 202.897 120.162 209.647 126.522C216.397 132.883 216.724 143.355 210.383 150.085Z" fill="#D83B67"/>
<path d="M71.5743 124.743L76.3678 117.402L67.1425 108.709L60.099 113.931C56.9898 112.272 53.8943 111.049 50.376 110.275L48.5828 101.809L35.9278 102.166L34.6663 110.718C31.2025 111.69 28.1887 113.085 25.1886 114.916L18.4929 110.301L10.0379 119.275L15.2812 126.333C13.6311 129.436 12.4174 132.528 11.6537 136.043L3.19195 137.811L3.58724 150.465L12.1444 151.751C13.1262 155.218 14.5307 158.235 16.3717 161.24L11.5782 168.581L20.8034 177.274L27.847 172.053C30.9562 173.712 34.0517 174.934 37.57 175.709L39.3632 184.174L52.0182 183.817L53.2797 175.265C56.7435 174.294 59.7573 172.898 62.7574 171.067L70.1144 175.881L78.7808 166.684L73.5375 159.626C75.1876 156.522 76.4014 153.431 77.1651 149.915L85.6268 148.148L85.2315 135.494L76.6744 134.207C75.0448 130.978 73.6266 127.524 71.5743 124.743ZM56.1165 154.222C49.7752 160.952 39.3021 161.248 32.5519 154.887C25.8018 148.527 25.4746 138.055 31.8159 131.325C38.1571 124.595 48.6302 124.299 55.3804 130.659C62.1306 137.02 62.4577 147.492 56.1165 154.222Z" fill="#44C4A1"/>
<path d="M183.834 125.067C176.436 132.919 176.831 145.572 184.706 152.993C192.581 160.413 205.236 160.056 212.634 152.204C220.033 144.353 219.637 131.699 211.762 124.278C203.887 116.858 191.443 116.991 183.834 125.067ZM208.134 147.964C203.061 153.348 194.334 153.594 188.934 148.506C183.533 143.418 183.261 134.691 188.334 129.307C193.407 123.923 202.134 123.677 207.535 128.765C212.935 133.853 213.419 142.356 208.134 147.964Z" fill="#0B3357"/>
<path d="M207.616 103.433L205.809 94.5312L187.918 95.0364L186.67 104.025C186.67 104.025 186.67 104.025 186.458 104.249C121.151 96.9218 103.628 95.233 53.3622 108.007L51.5554 99.1054L33.8752 99.3862L32.4159 108.599C30.0362 109.321 27.8816 110.255 25.7406 111.626L17.9335 106.387L5.67379 119.399L11.3671 126.881C10.1261 129.099 9.3215 131.306 8.7419 133.724L0.0551758 135.279L0.389034 152.957L9.38255 154.232C10.5485 156.601 11.4894 158.758 12.8667 160.903L7.65046 168.693L20.7008 180.989L28.1671 175.32C30.3899 176.567 32.599 177.378 35.0196 177.965L36.8263 186.867L54.2816 186.374L55.5295 177.386C57.9091 176.663 60.0638 175.729 62.2048 174.358L70.0118 179.597L82.2716 166.586L76.5783 159.104C77.8192 156.885 78.6239 154.679 79.2035 152.26L82.2445 151.738C112.745 150.717 135.904 147.359 161.004 149.295L164.073 149.646C164.802 152.027 165.743 154.184 167.12 156.329L161.904 164.119L174.955 176.415L182.421 170.745C184.644 171.993 186.853 172.804 189.273 173.391L191.08 182.292L208.972 181.787L210.22 172.799C212.599 172.077 214.754 171.143 216.895 169.772L224.702 175.011L236.962 161.999L231.268 154.517C232.509 152.299 233.314 150.092 233.894 147.674L242.792 145.894L242.233 128.004L233.239 126.73C232.51 124.348 231.569 122.191 230.192 120.046L235.408 112.256L222.357 99.9597L214.891 105.63C212.259 105.267 209.825 104.244 207.616 103.433ZM73.7352 144.99C74.4102 145.626 74.8602 146.05 75.5352 146.687L74.0147 146.948C72.8691 152.221 72.4873 153.979 69.3848 159.525L74.3894 165.935L69.3164 171.319L62.6208 166.704C58.1274 169.669 56.8455 170.579 50.3407 172.073L49.2769 179.964L41.8584 180.174L40.0926 172.581C33.7173 171.232 32.1696 170.621 27.499 167.914L21.1032 172.899L15.7031 167.81L20.2988 161.13C17.3192 156.628 16.4055 155.344 14.8919 148.836L6.5598 147.761L6.32807 140.343L14.142 138.812C15.2876 133.539 15.6695 131.781 18.7719 126.235L13.7673 119.825L18.8403 114.441L25.5359 119.056C30.0293 116.09 31.3112 115.181 37.816 113.687L38.8798 105.796L46.2983 105.586L47.8528 113.404C50.7097 113.978 52.2438 114.153 54.903 115.388C58.5235 126.422 64.5099 136.298 73.7352 144.99ZM226.721 113.812L222.337 120.268C225.316 124.77 226.23 126.054 227.744 132.562L235.639 133.649L235.871 141.067L228.057 142.598C226.911 147.871 226.53 149.629 223.427 155.175L228.432 161.585L223.359 166.969L216.663 162.354C212.17 165.32 210.888 166.229 204.383 167.723L203.319 175.614L195.901 175.824L194.346 168.007C189.069 166.845 187.31 166.458 181.753 163.34L175.357 168.324L169.957 163.236L174.553 156.556C171.573 152.054 170.659 150.77 169.146 144.262L167.612 144.086C168.246 143.413 168.668 142.965 169.303 142.292C177.758 133.319 183.328 122.898 185.804 111.255C188.606 110.084 189.902 109.611 192.718 108.876L193.781 100.985L201.2 100.776L202.318 108.605C207.595 109.766 209.355 110.153 214.912 113.272L221.307 108.287L226.932 113.587L226.721 113.812Z" fill="#0B3357"/>
<path d="M74.7737 53.4715C97.8667 28.9629 136.537 27.9834 161.263 51.2807C185.988 74.578 187.308 113.238 164.215 137.747C141.323 162.042 102.452 163.235 77.7264 139.938C53.001 116.64 51.8816 77.7669 74.7737 53.4715Z" fill="white"/>
<path d="M83.2964 61.502C101.988 41.6642 133.289 40.8714 153.302 59.7287C173.316 78.5861 174.384 109.879 155.692 129.716C137.163 149.382 105.7 150.347 85.6863 131.49C65.673 112.632 64.767 81.1672 83.2964 61.502Z" fill="#FFBF5D"/>
<path d="M29.3528 129.43C22.166 137.058 22.3363 149.5 30.4365 157.132C38.3117 164.552 50.9668 164.195 58.3649 156.343C65.763 148.492 65.3677 135.838 57.4925 128.417C48.9423 120.361 36.3281 122.027 29.3528 129.43ZM53.8648 152.103C48.7918 157.487 40.0642 157.734 34.664 152.645C29.2639 147.557 28.9913 138.83 34.0643 133.446C39.1373 128.062 47.8649 127.816 53.265 132.904C58.6651 137.992 58.9378 146.719 53.8648 152.103Z" fill="#0B3357"/>
<path fill-rule="evenodd" clip-rule="evenodd" d="M70.066 49.036C95.6454 21.8886 138.412 20.8633 165.698 46.5733C192.984 72.2834 194.502 115.035 168.922 142.183C143.558 169.102 100.591 170.369 73.2905 144.645C45.9897 118.921 44.7012 75.9556 70.066 49.036ZM161.262 51.2808C136.537 27.9835 97.8664 28.963 74.7734 53.4715C51.8813 77.7669 53.0007 116.64 77.7261 139.938C102.452 163.235 141.323 162.042 164.215 137.747C187.308 113.238 185.988 74.5781 161.262 51.2808Z" fill="#0B3357"/>
<path fill-rule="evenodd" clip-rule="evenodd" d="M141.846 84.336H138.93C138.882 79.4262 136.91 74.7277 133.434 71.2523C129.915 67.734 125.141 65.7574 120.164 65.7574C115.187 65.7574 110.414 67.734 106.895 71.2523C103.418 74.7277 101.447 79.4262 101.399 84.336H98.1187C95.9049 84.336 94.1104 86.1301 94.1104 88.3432V114.572C94.1104 116.785 95.9049 118.579 98.1187 118.579H141.846C144.059 118.579 145.854 116.785 145.854 114.572V88.3432C145.854 86.1301 144.059 84.336 141.846 84.336ZM111.471 75.8277C109.209 78.0895 107.919 81.1424 107.872 84.336H132.457C132.409 81.1424 131.12 78.0895 128.857 75.8277C126.552 73.5228 123.425 72.2279 120.164 72.2279C116.904 72.2279 113.777 73.5228 111.471 75.8277ZM125.448 98.1789C125.448 100.202 124.349 101.968 122.715 102.912C122.715 102.928 122.715 102.944 122.715 102.96V107.605C122.715 109.038 121.553 110.2 120.119 110.2C118.685 110.2 117.522 109.038 117.522 107.605V103.06C115.739 102.16 114.516 100.312 114.516 98.1789C114.516 95.1611 116.963 92.7146 119.982 92.7146C123.001 92.7146 125.448 95.1611 125.448 98.1789Z" fill="#0B3357"/>
</svg>
