<!-- Save this as pattern.svg -->
<svg xmlns="http://www.w3.org/2000/svg" width="150" height="150" viewBox="0 0 150 150" >
  <!-- First SVG -->
  <g id="SVGRepo_bgCarrier" stroke-width="0"></g><g id="SVGRepo_tracerCarrier" stroke-linecap="round" stroke-linejoin="round"></g><g id="SVGRepo_iconCarrier" transform="translate(50, 50)"> <title>airbnb [#179]</title> <desc>Created with Sketch.</desc> <defs> </defs> <g id="Page-1" stroke="none" stroke-width="1" fill="none" fill-rule="evenodd"> <g id="Dribbble-Light-Preview" transform="translate(-261.000000, -7399.000000)" fill="#d96ff1"> <g id="icons" transform="translate(56.000000, 160.000000)"> <path d="M219.770353,7256.58451 C218.225353,7257.4867 216.591353,7256.27747 215.381353,7254.95558 C216.484353,7253.46124 217.537353,7251.64689 217.594353,7249.79167 C217.642353,7248.02816 216.690353,7246.67637 215.284353,7246.16297 C214.541353,7245.88783 213.713353,7245.86191 212.952353,7246.08621 C211.551353,7246.49893 210.547353,7247.71414 210.427353,7249.28525 C210.262353,7251.27006 211.430353,7253.35756 212.626353,7254.95459 C211.920353,7255.73715 210.963353,7256.59348 209.927353,7256.82476 C208.126353,7257.24944 206.591353,7255.54375 207.196353,7253.68355 C207.507353,7252.7365 212.316353,7242.06773 213.133353,7241.42174 C213.626353,7241.02099 214.408353,7241.01202 214.920353,7241.46062 C215.671353,7242.1086 220.592353,7252.87506 220.853353,7253.83109 C221.159353,7254.96157 220.667353,7256.07011 219.770353,7256.58451 M214.002353,7253.23096 C213.584353,7252.62484 213.216353,7252.0277 212.919353,7251.34383 C212.484353,7250.326 212.198353,7248.98717 213.117353,7248.37608 C213.702353,7247.9843 214.529353,7248.03414 215.045353,7248.4987 C215.696353,7249.0749 215.533353,7250.14058 215.238353,7250.96103 C214.923353,7251.81836 214.449353,7252.59294 214.002353,7253.23096 M216.416353,7239.97126 C215.065353,7238.63143 212.829353,7238.71417 211.564353,7239.99518 C210.419353,7241.12267 205.250353,7252.2859 205.050353,7253.77626 C204.629353,7256.63336 206.908353,7259.16148 209.641353,7258.97407 C211.381353,7258.87936 212.807353,7257.80272 214.003353,7256.53566 C216.048353,7258.71388 218.673353,7259.8623 221.041353,7258.22839 C222.263353,7257.392 223.027353,7255.93753 223.002353,7254.3724 C222.979353,7252.30085 217.366353,7240.88342 216.416353,7239.97126" id="airbnb-[#179]"> </path> </g> </g> </g> </g>
  <g id="SVGRepo_bgCarrier" stroke-width="0" ></g><g id="SVGRepo_tracerCarrier" class="background-icon" stroke-linecap="round" stroke-linejoin="round"></g><g id="SVGRepo_iconCarrier " transform="translate(100, 100)"> <title> spiral [#30]</title> <desc>Created with Sketch.</desc> <defs> </defs> <g id="Page-1" stroke="none" stroke-width="1" fill="none" fill-rule="evenodd"> <g id="Dribbble-Light-Preview" transform="translate(-381.000000, -8039.000000)" fill="#d96ff1"> <g id="icons" transform="translate(56.000000, 160.000000)"> <path d="M336.622775,7895.01452 C333.022714,7895.3213 329.929083,7892.89808 329.177444,7889.58357 C328.445822,7886.35728 330.675718,7883.02874 333.977526,7883.00969 C336.468644,7882.99565 338.540405,7884.8043 338.941747,7887.1814 C339.245004,7888.98202 338.148072,7890.82275 336.33453,7891.01324 C334.529995,7891.20273 333.0067,7889.7911 333.0067,7888.02256 C333.0067,7887.46914 333.455081,7887.01999 334.007551,7887.01999 C334.560021,7887.01999 335.008402,7887.46914 335.008402,7888.02256 C335.008402,7888.57598 335.456783,7889.02513 336.009253,7889.02513 C336.561723,7889.02513 337.010104,7888.57598 337.010104,7888.02256 C337.010104,7886.25402 335.486809,7884.84239 333.682275,7885.03188 C331.868733,7885.22337 330.7718,7887.0631 331.075058,7888.86372 C331.476399,7891.24183 333.548161,7893.04947 336.039279,7893.03543 C339.341086,7893.01638 341.570982,7889.68784 340.83936,7886.46155 C339.941597,7882.49938 335.695987,7879.81147 331.240198,7881.5369 C328.964263,7882.41716 327.340883,7884.52758 327.062646,7886.95582 C326.472144,7892.11507 330.230339,7896.53241 335.138513,7897.00463 C335.637937,7897.05275 336.009253,7897.49088 336.009253,7897.99417 C336.009253,7898.5917 335.488811,7899.05489 334.894305,7898.99474 C329.388624,7898.44031 325.07996,7893.82346 325.000893,7888.18097 C324.940842,7883.91401 327.915371,7880.06111 332.086918,7879.1989 C337.477502,7878.08404 342.265573,7881.79657 342.935142,7886.81546 C343.469596,7890.82075 340.642192,7894.67164 336.622775,7895.01452" id="-spiral-[#30]"> </path> </g> </g> </g> </g>
  <g id="SVGRepo_bgCarrier" stroke-width="0" ></g><g id="SVGRepo_tracerCarrier"  stroke-linecap="round" stroke-linejoin="round"></g><g id="SVGRepo_iconCarrier"> <title>atom [#1298]</title> <desc>Created with Sketch.</desc> <defs> </defs> <g id="Page-1" stroke="none" stroke-width="1" fill="none" fill-rule="evenodd"> <g id="Dribbble-Light-Preview" transform="translate(-220.000000, -2399.000000)" fill="#d96ff1" > <g id="icons" transform="translate(56.000000, 160.000000)"> <path d="M180.407706,2250.77619 C178.984549,2252.60108 177.496521,2254.0618 175.773962,2255.40378 C177.201111,2256.22793 180.549423,2257.72157 181.634256,2256.63701 C182.374777,2255.89667 182.034457,2253.58088 180.407706,2250.77619 M174.001503,2254.25137 C175.983544,2252.80163 177.797919,2250.98771 179.247025,2249.00617 C177.803907,2247.03161 175.99053,2245.21569 174.001503,2243.76096 C172.00549,2245.21968 170.195106,2247.03759 168.754982,2249.00617 C170.204088,2250.98871 172.019462,2252.80163 174.001503,2254.25137 M172.228045,2255.40378 C170.501494,2254.05781 169.013466,2252.59709 167.594301,2250.77619 C165.96755,2253.58088 165.62723,2255.89667 166.367751,2256.63701 C167.442604,2257.71059 170.761973,2256.25187 172.228045,2255.40378 M167.594301,2247.23615 C169.01646,2245.41125 170.504488,2243.95153 172.228045,2242.60855 C170.802892,2241.78441 167.453582,2240.28977 166.367751,2241.37533 C165.62723,2242.11566 165.96755,2244.43146 167.594301,2247.23615 M175.773962,2242.60855 C177.500513,2243.95353 178.987543,2245.41424 180.407706,2247.23615 C184.018494,2241.00915 181.287948,2239.42172 175.773962,2242.60855 M181.664197,2249.00617 C187.098342,2257.49707 182.427671,2262.0648 174.001503,2256.67392 C165.595294,2262.05183 160.885701,2257.52501 166.338809,2249.00617 C160.941589,2240.57413 165.492499,2235.89465 174.001503,2241.33841 C182.424677,2235.94953 187.103332,2240.50828 181.664197,2249.00617 M175.065378,2247.94555 C175.649211,2248.53024 175.649211,2249.47811 175.065378,2250.06179 C174.480546,2250.64648 173.53244,2250.64648 172.947608,2250.06179 C172.362776,2249.47811 172.362776,2248.53024 172.947608,2247.94555 C173.53244,2247.36087 174.480546,2247.36087 175.065378,2247.94555" id="atom-[#1298]"> </path> </g> </g> </g> </g>
</svg>
